<?xml version="1.0" standalone="no"?>
<!DOCTYPE svg PUBLIC "-//W3C//DTD SVG 20010904//EN"
 "http://www.w3.org/TR/2001/REC-SVG-20010904/DTD/svg10.dtd">
<svg version="1.0" xmlns="http://www.w3.org/2000/svg"
 width="772.000000pt" height="772.000000pt" viewBox="0 0 772.000000 772.000000"
 preserveAspectRatio="xMidYMid meet">

<g transform="translate(0.000000,772.000000) scale(0.100000,-0.100000)"
fill="#000000" stroke="none">
<path d="M3331 7261 c-12 -16 -21 -34 -21 -40 0 -6 -4 -19 -9 -29 -15 -28 -31
-93 -39 -158 -10 -77 7 -166 44 -230 25 -43 125 -148 159 -167 29 -16 80 41
105 118 7 22 17 48 22 59 5 10 8 51 7 90 -6 125 -38 193 -142 295 -98 96 -101
98 -126 62z"/>
<path d="M3884 7268 c-98 -111 -153 -239 -154 -358 0 -98 32 -177 104 -257 25
-28 46 -56 46 -62 0 -46 108 61 155 155 28 55 30 66 30 169 -1 105 -2 113 -37
186 -29 63 -111 189 -122 189 -1 0 -11 -10 -22 -22z"/>
<path d="M4351 7194 c-53 -55 -82 -95 -107 -149 -31 -67 -34 -82 -34 -164 0
-74 4 -100 24 -143 22 -49 66 -108 79 -108 3 0 23 12 44 26 55 37 110 101 140
164 24 48 27 68 27 160 1 100 -1 109 -38 198 -21 50 -44 92 -50 92 -6 0 -44
-34 -85 -76z"/>
<path d="M2799 7103 c-7 -16 -15 -37 -20 -48 -24 -60 -41 -165 -36 -225 12
-140 77 -237 201 -296 l58 -28 19 23 c31 38 53 129 54 216 0 115 -30 172 -153
293 -52 50 -99 92 -104 92 -5 0 -13 -12 -19 -27z"/>
<path d="M4900 7072 c-116 -119 -138 -151 -160 -236 -24 -86 -22 -178 5 -229
7 -14 16 -40 20 -57 4 -17 13 -34 21 -37 17 -6 122 41 153 70 66 62 111 169
111 265 0 76 -62 283 -85 282 -5 -1 -35 -26 -65 -58z"/>
<path d="M2496 6638 c-34 -122 -36 -136 -36 -201 0 -88 32 -161 102 -230 54
-54 143 -111 159 -102 4 3 22 34 40 68 27 53 32 72 31 134 -1 87 -14 129 -64
204 -41 62 -174 189 -199 189 -10 0 -21 -20 -33 -62z"/>
<path d="M5226 6667 c-98 -81 -146 -132 -177 -190 -30 -56 -33 -70 -33 -147 1
-93 6 -126 25 -162 7 -12 13 -30 14 -38 0 -28 36 -22 97 17 141 88 184 164
181 318 -2 91 -36 226 -58 231 -5 2 -27 -11 -49 -29z"/>
<path d="M3175 6660 c-4 -6 3 -37 14 -69 11 -32 25 -89 31 -127 6 -38 15 -91
21 -117 12 -65 12 -137 -2 -137 -16 0 -49 19 -94 55 -22 17 -64 44 -94 59 -43
23 -55 26 -62 15 -12 -20 -1 -49 31 -84 15 -16 40 -46 56 -65 16 -19 57 -64
91 -101 74 -77 74 -78 79 -286 2 -119 0 -154 -11 -163 -16 -13 -20 -2 -30 85
-15 134 -89 223 -259 314 -32 17 -65 31 -72 31 -35 0 -56 -198 -29 -284 41
-133 93 -180 288 -260 l102 -42 3 -78 3 -78 -113 -108 c-62 -60 -119 -109
-127 -110 -7 0 -39 24 -70 54 -31 30 -81 73 -111 95 -29 22 -58 47 -62 55 -5
8 -15 97 -23 198 -9 101 -20 196 -25 212 -6 16 -10 40 -10 53 0 13 -10 45 -21
71 -97 217 -127 253 -184 222 l-22 -12 34 -86 c19 -48 39 -109 44 -137 22
-103 36 -190 33 -194 -8 -8 -51 18 -181 108 -73 50 -134 91 -137 91 -3 0 -29
14 -58 32 -88 52 -218 118 -234 118 -8 0 -14 -7 -14 -16 0 -17 156 -176 259
-264 190 -162 304 -282 322 -340 6 -19 29 -69 51 -110 40 -75 94 -129 210
-212 24 -17 47 -35 53 -40 6 -5 -44 -60 -134 -147 -116 -112 -142 -142 -136
-157 4 -10 42 -51 84 -91 l76 -72 60 57 c33 31 125 115 205 186 80 72 147 133
150 136 3 3 37 33 75 65 75 63 336 296 530 474 66 61 125 111 132 111 14 0 77
-52 168 -139 69 -66 120 -113 310 -286 152 -139 191 -173 270 -240 32 -27 83
-72 113 -99 30 -26 69 -60 86 -75 17 -14 60 -53 96 -86 36 -33 75 -69 88 -79
l22 -19 90 89 c50 49 90 93 90 99 0 5 -53 55 -117 110 -64 55 -130 113 -146
128 l-30 28 24 23 c13 12 59 46 102 75 90 60 134 115 178 221 51 123 80 158
276 337 230 208 313 292 313 315 0 23 -1 23 -58 -5 -109 -54 -278 -162 -406
-259 -93 -70 -126 -83 -126 -48 0 21 3 35 51 235 40 169 41 179 8 183 -17 2
-34 -6 -51 -23 -28 -28 -106 -179 -119 -229 -4 -17 -14 -57 -23 -88 -17 -64
-36 -239 -36 -339 0 -75 2 -72 -130 -171 -41 -31 -88 -70 -104 -87 -17 -17
-33 -31 -38 -31 -4 0 -58 50 -120 111 l-113 110 -2 69 -3 68 42 25 c24 13 66
32 94 41 64 21 159 77 191 114 14 15 37 52 51 82 23 49 26 67 26 165 1 136 -6
165 -38 165 -13 0 -29 -7 -36 -15 -7 -8 -20 -15 -29 -15 -22 0 -150 -102 -179
-143 -44 -60 -72 -126 -78 -181 -6 -51 -26 -87 -40 -73 -3 3 -8 77 -11 164 -5
131 -3 164 10 188 8 17 61 82 116 145 56 63 113 134 128 158 23 40 24 45 10
59 -14 14 -20 13 -59 -18 -24 -19 -47 -37 -53 -41 -5 -4 -36 -28 -67 -53 -31
-25 -61 -45 -66 -45 -14 0 -3 256 15 320 8 30 19 72 25 93 6 21 8 40 5 44 -4
3 -52 -40 -107 -96 l-100 -103 0 -259 c0 -142 -3 -259 -7 -259 -4 0 -35 18
-69 41 -35 22 -68 38 -74 34 -5 -3 -10 -23 -10 -43 0 -33 7 -43 70 -97 l69
-60 1 -142 c0 -108 -3 -143 -12 -143 -23 0 -191 138 -407 332 -35 32 -68 58
-74 58 -5 0 -44 -33 -86 -72 -42 -40 -114 -106 -161 -147 -47 -41 -98 -86
-115 -100 -43 -38 -101 -81 -108 -81 -4 0 -7 65 -7 143 l0 144 58 54 c64 59
75 79 66 115 -7 27 -26 31 -44 9 -7 -8 -20 -15 -29 -15 -10 0 -28 -11 -41 -25
-16 -17 -27 -22 -34 -15 -8 8 -21 265 -25 502 -1 41 -7 54 -43 97 -24 27 -58
67 -76 90 -38 47 -67 66 -77 51z"/>
<path d="M2026 6572 c-3 -5 -6 -71 -7 -145 0 -124 2 -140 24 -190 15 -32 43
-69 69 -91 44 -38 154 -96 182 -96 39 0 78 152 58 226 -33 123 -89 192 -207
257 -77 42 -110 53 -119 39z"/>
<path d="M5687 6541 c-88 -43 -179 -122 -209 -184 -47 -95 -46 -223 3 -288 16
-21 18 -22 50 -7 19 8 50 21 69 28 150 58 199 176 174 419 -4 34 -12 61 -18
61 -6 0 -37 -13 -69 -29z"/>
<path d="M3682 6528 c-94 -98 -115 -129 -137 -207 -32 -115 -26 -208 24 -338
13 -36 20 -43 43 -43 15 0 38 10 51 23 14 12 40 36 59 52 129 113 149 275 57
460 -23 47 -47 85 -54 85 -6 0 -25 -15 -43 -32z"/>
<path d="M4009 6473 c-37 -80 -41 -97 -46 -190 -6 -100 -5 -105 25 -166 23
-46 47 -76 89 -110 32 -26 68 -50 81 -53 23 -6 52 10 52 29 0 6 6 18 13 26 7
9 23 42 36 74 44 110 17 242 -71 350 -65 80 -111 127 -125 127 -7 0 -31 -39
-54 -87z"/>
<path d="M1490 6198 c-6 -18 -18 -49 -25 -68 -33 -87 -40 -211 -14 -286 32
-97 114 -185 218 -237 19 -9 35 -17 37 -17 6 0 34 64 34 77 0 7 4 21 9 31 66
131 20 318 -106 425 -20 18 -56 49 -78 70 -23 20 -47 37 -52 37 -6 0 -16 -15
-23 -32z"/>
<path d="M6176 6138 c-121 -119 -158 -188 -164 -316 -4 -78 5 -139 29 -184 5
-10 9 -25 9 -34 0 -36 98 9 177 80 107 97 148 224 118 368 -8 40 -19 82 -24
93 -5 11 -14 35 -21 53 -7 17 -16 32 -20 32 -5 0 -51 -42 -104 -92z"/>
<path d="M1940 5667 c0 -24 -7 -68 -16 -98 -37 -123 6 -262 110 -355 34 -29
65 -54 69 -54 5 0 22 -9 38 -21 16 -11 36 -19 43 -16 7 3 23 40 35 82 46 153
16 278 -91 382 -72 71 -144 123 -168 123 -17 0 -20 -7 -20 -43z"/>
<path d="M5750 5676 c-77 -56 -133 -127 -159 -201 -27 -75 -29 -114 -13 -229
8 -61 16 -84 34 -101 l23 -21 60 34 c145 81 206 197 175 334 -26 121 -56 218
-65 218 -5 0 -30 -15 -55 -34z"/>
<path d="M6369 5606 c-85 -57 -163 -128 -344 -310 -99 -100 -243 -238 -321
-308 -220 -199 -293 -307 -398 -589 -70 -190 -105 -315 -162 -578 -5 -22 -54
-85 -134 -173 -14 -16 -72 -98 -130 -183 -58 -85 -108 -154 -112 -155 -5 0 -8
268 -8 595 l0 595 -865 0 -865 0 0 -594 c0 -368 -4 -597 -10 -601 -5 -3 -17 7
-26 22 -10 15 -27 44 -39 63 -13 19 -41 70 -64 114 -42 78 -113 176 -181 249
-48 53 -48 52 -75 184 -14 65 -29 129 -34 143 -5 14 -14 43 -20 65 -57 205
-116 373 -167 475 -62 125 -119 195 -277 336 -78 70 -232 215 -342 324 -195
192 -255 243 -363 308 -99 60 -96 41 10 -85 165 -197 387 -440 459 -503 165
-144 218 -207 309 -365 48 -84 124 -268 118 -286 -2 -6 -40 18 -85 53 -76 59
-123 114 -203 238 -38 59 -113 133 -178 177 -115 76 -338 179 -366 170 -14 -5
42 -56 124 -114 162 -115 227 -173 281 -251 79 -115 80 -156 1 -75 -73 75
-162 113 -263 113 -106 0 -289 -51 -289 -80 0 -19 110 -128 169 -169 111 -75
257 -88 442 -40 l46 12 74 -56 c107 -80 222 -201 258 -272 37 -75 59 -140 63
-185 l3 -35 -90 -7 c-49 -4 -128 -5 -175 -2 -96 5 -84 -2 -320 195 -202 168
-293 230 -313 210 -7 -7 9 -34 49 -88 32 -43 61 -80 64 -83 3 -3 37 -41 75
-85 39 -44 89 -100 112 -125 28 -30 38 -47 30 -51 -7 -4 -91 -10 -187 -14
-262 -11 -303 -16 -405 -50 -50 -17 -123 -69 -160 -114 -65 -80 -112 -147
-107 -152 4 -4 42 -14 84 -24 116 -27 294 -18 365 18 29 15 63 42 76 62 54 79
95 93 320 105 187 11 650 11 687 1 18 -5 49 -43 108 -131 45 -69 86 -129 90
-135 60 -82 57 -89 -35 -82 -346 25 -641 104 -855 228 -36 22 -72 39 -78 39
-15 0 -70 -51 -70 -65 0 -6 13 -18 29 -28 15 -9 63 -41 105 -72 118 -84 183
-120 323 -179 128 -53 447 -142 583 -162 126 -18 299 -91 435 -182 98 -66 110
-76 140 -111 l20 -23 -55 25 c-96 42 -152 50 -284 43 -124 -7 -142 -9 -351
-44 -66 -11 -169 -25 -230 -31 -316 -33 -393 -76 -494 -281 -18 -36 -37 -73
-42 -82 -5 -10 -9 -21 -9 -24 0 -3 73 -4 163 -2 156 4 165 5 227 34 71 34 121
79 151 136 10 20 24 40 29 43 18 11 60 -4 60 -20 0 -21 -50 -118 -92 -181 -19
-28 -32 -56 -30 -62 15 -45 128 52 233 199 l69 96 100 12 c255 29 391 -2 507
-116 48 -47 103 -145 103 -183 0 -10 5 -22 10 -25 6 -4 10 -139 10 -373 0
-386 -4 -437 -50 -573 -73 -216 -270 -402 -517 -488 -73 -26 -278 -69 -361
-76 -32 -2 -101 -9 -153 -15 -52 -6 -148 -15 -214 -20 -189 -14 -445 -39 -479
-48 -29 -8 -31 -11 -34 -61 l-3 -53 328 5 c350 5 598 18 808 43 72 9 146 18
165 20 19 2 53 8 75 13 22 5 51 12 65 14 57 11 208 55 243 72 84 40 47 -12
-83 -117 -97 -79 -136 -103 -248 -154 -52 -23 -99 -47 -104 -52 -29 -29 205
-26 312 5 177 51 412 235 528 415 20 32 40 58 45 58 10 0 9 -67 -2 -88 -5 -9
-17 -42 -25 -72 -20 -68 -73 -174 -123 -247 -33 -49 -36 -56 -21 -64 9 -5 24
-16 32 -24 21 -21 34 -19 75 12 101 76 172 157 224 256 13 25 28 42 33 38 5
-3 26 -31 46 -62 36 -53 172 -194 231 -240 28 -21 29 -21 68 -3 21 11 39 22
39 26 0 4 -20 38 -44 75 -24 37 -54 88 -66 113 -32 62 -90 211 -90 230 0 9 -5
21 -12 28 -8 8 -9 15 -2 22 8 8 30 -14 74 -70 227 -294 445 -423 719 -424 128
-1 150 11 74 39 -87 32 -207 97 -278 151 -73 55 -172 150 -164 158 2 2 27 -6
54 -19 96 -44 324 -96 490 -111 33 -3 80 -7 105 -9 149 -14 637 -35 820 -36
l215 -1 3 51 c3 47 1 52 -23 61 -15 6 -45 10 -67 10 -23 0 -55 4 -72 9 -17 6
-132 17 -256 26 -215 15 -273 20 -475 45 -451 55 -742 260 -830 585 -41 150
-45 198 -39 540 3 182 10 353 16 380 37 172 169 290 363 323 44 8 308 6 340
-2 12 -3 38 -36 63 -79 24 -40 59 -92 78 -115 41 -47 129 -117 162 -127 37
-11 37 19 0 68 -37 49 -125 213 -118 220 3 2 21 7 41 11 34 6 37 4 44 -21 13
-54 98 -146 166 -181 29 -15 76 -26 134 -32 111 -12 265 -2 265 15 0 20 -56
123 -92 169 -100 128 -213 189 -373 200 -95 7 -243 27 -385 51 -281 47 -441
42 -558 -19 -83 -43 -55 -1 53 79 154 114 286 170 524 219 211 44 490 130 637
196 78 35 203 110 274 165 30 24 65 48 78 54 31 16 28 38 -10 61 -45 27 -72
25 -121 -8 -78 -53 -174 -93 -363 -152 -17 -6 -42 -10 -56 -10 -14 0 -38 -4
-54 -9 -108 -33 -460 -85 -470 -69 -5 7 20 46 166 261 31 46 64 83 79 88 26
10 683 5 838 -6 l83 -7 47 -50 c83 -87 189 -128 333 -128 86 0 216 22 233 39
12 12 -55 101 -136 179 -106 101 -187 128 -394 131 -76 1 -174 7 -218 12 -44
5 -86 9 -92 9 -28 0 -8 27 116 158 158 168 231 254 225 264 -8 12 -65 -2 -109
-27 -45 -26 -235 -178 -347 -277 -40 -36 -83 -71 -96 -77 -24 -13 -345 -17
-364 -5 -11 7 -2 92 11 109 5 6 14 32 22 60 17 58 84 135 229 260 129 111 125
109 225 94 108 -16 274 -7 337 17 44 18 103 68 192 164 28 30 36 44 28 52 -14
14 -171 56 -239 63 -106 13 -239 -43 -320 -133 -23 -26 -45 -43 -49 -39 -12
12 70 166 111 210 20 21 68 59 108 85 83 54 223 160 251 191 23 26 11 27 -56
6 -76 -22 -212 -94 -319 -166 -77 -52 -136 -121 -188 -220 -58 -112 -82 -141
-165 -204 -74 -55 -116 -75 -116 -55 0 37 54 174 114 290 58 112 113 180 321
392 105 106 204 211 220 233 26 35 108 134 156 188 45 50 130 178 127 191 -2
10 -15 6 -49 -18z m-1774 -1271 c0 -19 -8 -20 -133 -23 -115 -2 -133 0 -139
14 -10 28 18 34 147 32 117 -3 125 -4 125 -23z m-1100 -5 c0 -12 -22 -15 -129
-18 -147 -3 -172 1 -141 24 29 21 270 16 270 -6z m643 -618 l2 -452 -242 2
-243 3 -3 430 c-1 237 0 440 3 453 l5 22 238 -2 237 -3 3 -453z m-670 411 l-3
-28 -110 -3 c-60 -2 -120 0 -132 3 -22 5 -31 33 -16 48 3 4 64 7 135 7 l129 0
-3 -27z m1117 7 c3 -11 3 -24 0 -30 -4 -6 -57 -10 -130 -10 -104 0 -124 2
-129 16 -14 36 11 44 135 44 109 0 118 -2 124 -20z m-1110 -210 c3 -11 3 -24
0 -30 -4 -6 -58 -10 -130 -10 -111 0 -125 2 -134 18 -18 35 6 42 135 42 114 0
123 -1 129 -20z m1123 -6 c2 -15 -4 -23 -20 -28 -30 -8 -222 -8 -242 0 -16 6
-22 35 -9 48 4 3 66 5 137 4 125 -3 131 -4 134 -24z m-1123 -204 l0 -25 -133
-3 c-111 -2 -133 0 -138 13 -3 8 -3 22 0 30 5 13 27 15 138 13 l133 -3 0 -25z
m1120 10 c3 -11 3 -24 0 -30 -4 -6 -58 -10 -130 -10 -108 0 -125 2 -133 18
-20 37 -6 42 128 42 120 0 129 -1 135 -20z m-1130 -230 l0 -25 -118 0 c-121 0
-143 7 -130 42 4 11 31 13 127 11 l121 -3 0 -25z m1132 14 c12 -32 -24 -44
-138 -44 -59 0 -114 3 -123 6 -16 6 -22 35 -9 47 3 4 64 7 135 7 110 0 130 -2
135 -16z m-1142 -204 c3 -11 3 -24 0 -30 -8 -13 -201 -13 -226 0 -53 29 -3 49
123 49 88 1 97 -1 103 -19z m1142 4 c11 -30 -16 -38 -137 -42 -104 -4 -121 -2
-126 12 -16 41 -1 46 131 46 105 0 127 -3 132 -16z"/>
<path d="M973 5533 c-26 -2 -43 -9 -43 -17 0 -18 81 -166 116 -210 39 -50 132
-111 198 -130 67 -20 215 -21 240 -3 17 12 17 16 -2 74 -25 77 -37 98 -78 146
-46 55 -100 91 -169 115 -61 21 -186 33 -262 25z"/>
<path d="M6652 5529 c-64 -12 -148 -53 -203 -100 -37 -31 -59 -61 -89 -126
-23 -47 -43 -97 -46 -112 l-5 -26 91 -3 c148 -6 266 34 340 114 39 42 130 215
130 247 0 15 -11 17 -87 16 -49 -1 -107 -5 -131 -10z"/>
<path d="M3819 5204 c-30 -25 -79 -69 -109 -98 -30 -28 -91 -82 -135 -121 -44
-38 -88 -77 -97 -85 -9 -8 -80 -69 -156 -135 -77 -66 -145 -128 -151 -137 -11
-17 27 -18 741 -18 l752 0 -39 34 c-22 18 -75 62 -117 97 -43 35 -182 152
-310 260 -253 212 -300 249 -315 249 -5 0 -34 -21 -64 -46z m156 -308 c49 -49
40 -121 -19 -157 -105 -64 -209 68 -124 158 31 33 109 33 143 -1z"/>
<path d="M1070 4966 c-65 -15 -120 -37 -162 -67 -28 -21 -29 -23 -13 -35 9 -7
32 -26 50 -43 42 -38 126 -85 188 -106 42 -14 59 -15 120 -5 83 14 140 40 163
74 14 22 14 28 1 53 -31 60 -113 112 -205 132 -63 13 -71 13 -142 -3z"/>
<path d="M6525 4945 c-66 -27 -130 -85 -140 -127 -10 -40 28 -72 115 -98 l73
-22 80 22 c44 11 97 31 117 43 46 28 140 112 140 125 0 13 -120 59 -189 72
-82 15 -131 12 -196 -15z"/>
<path d="M970 4298 c-25 -5 -70 -14 -101 -20 -88 -16 -88 -17 -27 -99 66 -90
151 -169 210 -197 61 -28 162 -45 228 -37 74 9 170 35 170 47 0 20 -91 146
-138 192 -66 64 -102 84 -190 107 -82 21 -86 21 -152 7z"/>
<path d="M6705 4294 c-58 -15 -135 -51 -174 -82 -38 -31 -131 -159 -131 -181
0 -5 -7 -14 -15 -21 -30 -25 -16 -38 54 -51 96 -17 230 -7 306 22 43 17 77 40
120 84 61 61 145 171 145 191 0 21 -249 52 -305 38z"/>
<path d="M1368 3236 c-36 -13 -81 -34 -100 -47 -50 -35 -118 -101 -118 -114 0
-28 199 -95 282 -95 54 0 141 24 186 52 40 24 112 119 112 147 0 37 -99 72
-220 78 -60 3 -88 -1 -142 -21z"/>
<path d="M6184 3245 c-48 -15 -100 -41 -108 -54 -8 -12 28 -76 63 -115 63 -70
231 -113 338 -87 67 17 173 68 173 84 0 17 -75 88 -125 119 -104 64 -239 85
-341 53z"/>
<path d="M5915 2954 c-102 -18 -126 -25 -131 -38 -6 -16 37 -92 73 -131 91
-100 194 -130 396 -119 70 3 130 10 133 15 10 17 -61 122 -120 174 -33 30 -64
55 -69 55 -4 0 -26 9 -50 20 -62 29 -149 38 -232 24z"/>
<path d="M1705 2944 c-68 -20 -93 -33 -144 -74 -45 -35 -131 -156 -131 -182 0
-13 27 -15 183 -14 159 1 188 4 230 22 60 25 128 89 151 140 9 22 21 46 26 56
12 22 -4 34 -75 53 -73 19 -174 18 -240 -1z"/>
</g>
</svg>
